# xmcd CD database file
# Copyright (C) 1997 Ti Kan
# 
# Track frame offsets:
#     183
#     13908
#     25983
#     38433
#     49683
#     63333
#     75933
#     89583
#     106083
#     120183
#     133683
#     157533
#     177933
#     189858
#     207258
#     221658
#     236208
#     248058
#     272208
#     289158
#     304533
#     322158
# 
# Disc length: 4492 seconds
# 
# Revision: 1
# Processed by: cddbd v1.4b41PL1 Copyright (c) Steve Scherf et al.
# Submitted via: DiscPlay 4.0.4
# 
DISCID=24118a16
DTITLE=Gilbert O'Sullivan - Collection
DYEAR=1900
DGENRE=
TTITLE0=Clair
TTITLE1=Get Down
TTITLE2=Christmas Song
TTITLE3=Who Was It?
TTITLE4=No Matter How I Try
TTITLE5=Ooh Wakka Doo Wakka
TTITLE6=Day
TTITLE7=Underneath The Blanket Go
TTITLE8=Alone Again (Naturally)
TTITLE9=Happiness Is Me And You
TTITLE10=Out Of The Question
TTITLE11=I'll Belive It When I See It
TTITLE12=Mix Collection
TTITLE13=What's In A Kiss
TTITLE14=Why Oh Why Oh Why
TTITLE15=I Don't Love You But I Think I Like You
TTITLE16=Matrimony
TTITLE17=If You Ever At The Very Mention Of Your Name
TTITLE18=Ooh Baby
TTITLE19=Nothing Rhymed
TTITLE20=We Will
TTITLE21=A Woman's Place
EXTD=
EXTT0=
EXTT1=
EXTT2=
EXTT3=
EXTT4=
EXTT5=
EXTT6=
EXTT7=
EXTT8=
EXTT9=
EXTT10=
EXTT11=
EXTT12=
EXTT13=
EXTT14=
EXTT15=
EXTT16=
EXTT17=
EXTT18=
EXTT19=
EXTT20=
EXTT21=
PLAYORDER=
